<svg width="18" height="791" viewBox="0 0 18 791" fill="none" xmlns="http://www.w3.org/2000/svg">
<g style="mix-blend-mode:difference">
<line x1="9.5" y1="-2.18557e-08" x2="9.50003" y2="581" stroke="white" stroke-opacity="0.8"/>
<line x1="9.5" y1="658" x2="9.49999" y2="791" stroke="white" stroke-opacity="0.8"/>
<path d="M7.17393 600.273C7.33534 600.273 7.49588 600.208 7.61931 600.076L8.99861 598.607L10.3796 600.076C10.6256 600.338 11.0235 600.338 11.2695 600.076C11.5155 599.815 11.5155 599.391 11.2695 599.13L9.44398 597.188C9.20835 596.937 8.78973 596.937 8.55409 597.188L6.72942 599.13C6.48342 599.391 6.48342 599.816 6.72942 600.076C6.85198 600.208 7.01339 600.273 7.17393 600.273Z" fill="white" fill-opacity="0.8"/>
<path d="M9.80151 611.45C9.79876 611.438 9.796 611.428 9.79232 611.417C9.78864 611.406 9.78497 611.396 9.78129 611.385C9.70591 611.184 9.51929 611.022 9.28119 610.95C9.26832 610.946 9.25545 610.943 9.24258 610.94C9.16627 610.92 9.08446 610.909 9.0008 610.909C8.77557 610.909 8.57148 610.985 8.42347 611.108C8.27455 611.23 8.18262 611.4 8.18262 611.588V614.321C8.18262 614.509 8.27455 614.679 8.42347 614.801C8.57148 614.924 8.77557 615 9.0008 615C9.11387 615 9.22143 614.981 9.31888 614.947C9.34278 614.937 9.36668 614.928 9.38967 614.918C9.45953 614.887 9.52296 614.847 9.57812 614.801C9.6149 614.77 9.64891 614.737 9.67833 614.701C9.7675 614.593 9.81898 614.462 9.81898 614.321V611.588C9.81898 611.553 9.81622 611.518 9.80887 611.483C9.80703 611.473 9.80427 611.461 9.80151 611.45Z" fill="white" fill-opacity="0.8"/>
<path fill-rule="evenodd" clip-rule="evenodd" d="M8.99917 605.182C4.03744 605.182 0 609.284 0 614.325V624.675C0 629.717 4.03744 633.818 8.99917 633.818C13.9617 633.818 18 629.717 18 624.675V614.324C18 609.284 13.9626 605.182 8.99917 605.182ZM8.99917 616.636C10.0765 616.636 10.9534 615.746 10.9534 614.652V611.257C10.9534 610.163 10.0765 609.273 8.99917 609.273C7.9218 609.273 7.04659 610.163 7.04659 611.257V614.652C7.04659 615.746 7.92263 616.636 8.99917 616.636Z" fill="white" fill-opacity="0.8"/>
<path d="M10.3789 638.923L8.99817 640.388L7.61912 638.923C7.37317 638.662 6.97534 638.662 6.72938 638.923C6.48343 639.183 6.48343 639.606 6.72938 639.867L8.55374 641.804C8.67196 641.93 8.83162 642 8.99904 642C9.16646 642 9.32611 641.93 9.44434 641.804L11.2695 639.867C11.5155 639.606 11.5155 639.184 11.2695 638.923C11.0236 638.662 10.6249 638.662 10.3789 638.923Z" fill="white" fill-opacity="0.8"/>
</g>
</svg>
