<?xml version="1.0" encoding="UTF-8"?>
<svg id="Layer_2" data-name="Layer 2" xmlns="http://www.w3.org/2000/svg" xmlns:xlink="http://www.w3.org/1999/xlink" viewBox="0 0 675.58 736.37">
  <defs>
    <style>
      .cls-1 {
        fill: url(#linear-gradient-2);
      }

      .cls-2 {
        fill: url(#linear-gradient-6);
      }

      .cls-3 {
        fill: url(#linear-gradient-11);
      }

      .cls-4 {
        fill: url(#linear-gradient-10);
      }

      .cls-5 {
        fill: url(#linear-gradient-5);
      }

      .cls-6 {
        fill: url(#linear-gradient-7);
      }

      .cls-7 {
        fill: url(#linear-gradient-9);
      }

      .cls-8 {
        fill: url(#linear-gradient-3);
      }

      .cls-9 {
        fill: url(#linear-gradient);
      }

      .cls-10 {
        fill: url(#linear-gradient-4);
      }

      .cls-11 {
        fill: url(#linear-gradient-8);
      }

      .cls-12 {
        fill: url(#linear-gradient-12);
      }

      .cls-13 {
        fill: url(#linear-gradient-13);
      }
    </style>
    <linearGradient id="linear-gradient" x1="4.76" y1="-51.34" x2="730.46" y2="662.96" gradientUnits="userSpaceOnUse">
      <stop offset="0" stop-color="#e2c18f"/>
      <stop offset=".64" stop-color="#a77c48"/>
      <stop offset="1" stop-color="#8a5924"/>
    </linearGradient>
    <linearGradient id="linear-gradient-2" x1="89.85" y1="-137.79" x2="815.55" y2="576.51" xlink:href="#linear-gradient"/>
    <linearGradient id="linear-gradient-3" x1="42.32" y1="-89.5" x2="768.02" y2="624.8" xlink:href="#linear-gradient"/>
    <linearGradient id="linear-gradient-4" x1="-50.14" y1="4.43" x2="675.56" y2="718.73" xlink:href="#linear-gradient"/>
    <linearGradient id="linear-gradient-5" x1="78.97" y1="-126.74" x2="804.67" y2="587.56" xlink:href="#linear-gradient"/>
    <linearGradient id="linear-gradient-6" x1="-263.08" y1="220.77" x2="462.62" y2="935.07" xlink:href="#linear-gradient"/>
    <linearGradient id="linear-gradient-7" x1="-240.64" y1="197.97" x2="485.06" y2="912.27" xlink:href="#linear-gradient"/>
    <linearGradient id="linear-gradient-8" x1="-200.43" y1="157.12" x2="525.28" y2="871.41" xlink:href="#linear-gradient"/>
    <linearGradient id="linear-gradient-9" x1="-164" y1="120.11" x2="561.7" y2="834.41" xlink:href="#linear-gradient"/>
    <linearGradient id="linear-gradient-10" x1="-125.34" y1="80.84" x2="600.36" y2="795.14" xlink:href="#linear-gradient"/>
    <linearGradient id="linear-gradient-11" x1="-116.64" y1="72" x2="609.07" y2="786.3" xlink:href="#linear-gradient"/>
    <linearGradient id="linear-gradient-12" x1="-81.64" y1="36.44" x2="644.06" y2="750.73" xlink:href="#linear-gradient"/>
    <linearGradient id="linear-gradient-13" x1="-50.6" y1="4.9" x2="675.1" y2="719.2" xlink:href="#linear-gradient"/>
  </defs>
  <g id="Layer_1-2" data-name="Layer 1">
    <g>
      <path class="cls-9" d="M0,25.04V62.11c0,9.84,8.6,17.72,19.2,17.72H222.25V45.82c0-11.48-10.13-20.89-22.61-20.89H0v.11Z"/>
      <path class="cls-1" d="M299.87,25.04V171.25c21.44-41.99,59.36-48.23,59.36-48.23V25.04L329.55,0l-29.68,25.04Z"/>
      <path class="cls-8" d="M348.86,179.89c-31.33,28.87-48.88,67.91-48.88,108.81v129.15c0,15.09,13.31,27.45,29.68,27.45s29.68-12.25,29.68-27.45v-129.15c0-26.36,11.42-51.4,31.57-70.1,20.14-18.59,47.23-29.2,75.85-29.2,59.01,0,107.41,44.73,107.41,99.3v19.57l29.68,20.23,29.68-20.23v-19.57c0-83.55-73.38-154.08-166.66-154.08-44.29,0-86.45,16.29-117.78,45.27"/>
      <path class="cls-10" d="M162.89,134.62V417.86c0,41.01,17.67,79.94,48.88,108.81,31.33,28.87,73.49,45.27,117.78,45.27s86.45-16.29,117.78-45.27c7.18-6.56,13.54-13.78,19.32-21.33,5.77,7.65,12.13,14.76,19.32,21.33,31.33,28.87,73.49,45.27,117.78,45.27,10.01,0,19.91-.87,29.68-2.52v-115.15l-29.68-17.06-29.68,17.06v58.84c-17.31-4.6-33.21-13.24-46.17-25.26-20.14-18.7-31.57-43.74-31.57-70.1v-129.15c0-15.09-13.31-27.45-29.68-27.45s-29.68,12.25-29.68,27.45v129.15c0,26.36-11.42,51.4-31.56,70.1-20.14,18.59-47.35,29.2-75.85,29.2s-55.71-10.5-75.85-29.2c-20.14-18.7-31.56-43.74-31.56-70.1V134.62h-59.24Z"/>
      <path class="cls-5" d="M529.65,431.53v-1.64c0-3.94,.48-7.76,1.42-11.48,.94-3.83,2.36-7.55,4.36-11.48,4.01-7.98,10.13-15.97,18.61-23.95,1.29-1.2,2.12-1.97,2.71-2.51l.59-.66c9.3-9.08,13.9-16.95,13.9-23.84,0-3.17-.71-5.58-2-7.22-1.29-1.64-3.18-2.51-5.65-2.51-3.53,0-6.12,1.42-7.66,4.16-1.65,2.73-2.35,7.11-2.35,13.12v1.75h-22.85v-2.73c0-10.94,2.94-19.36,8.72-25.15,5.77-5.8,14.13-8.75,24.97-8.75,9.78,0,17.43,2.52,22.97,7.55,5.54,5.03,8.25,12.03,8.25,21,0,5.25-1.18,10.28-3.53,14.98-2.36,4.7-6.12,9.62-11.19,14.44-1.06,1.09-2.71,2.62-4.95,4.59-9.07,8.2-14.72,14.98-16.96,20.34h36.39v20.12h-65.61l-.12-.11Zm79.15-50.41c0-12.69,.35-21.87,1.18-27.45,.82-5.58,2.24-9.73,4.24-12.69,2.71-3.94,6.6-7,11.31-9.19,4.83-2.08,10.37-3.17,16.61-3.17s11.78,1.09,16.61,3.17c4.83,2.19,8.6,5.25,11.31,9.3,2,2.95,3.3,7,4.24,12.25,.82,5.25,1.3,13.01,1.3,23.29,0,11.15-.24,19.47-.59,25.04-.35,5.58-1.06,10.06-2,13.67-1.42,5.47-4.95,9.84-10.6,13.23-5.65,3.39-12.37,5.03-20.14,5.03-6.36,0-12.01-1.09-16.84-3.28-4.83-2.19-8.72-5.47-11.42-9.62-1.76-2.73-3.06-6.89-3.89-12.58-.82-5.69-1.18-14.65-1.18-26.9l-.12-.11Zm24.73,0v7.55c0,11.7,.59,19.03,1.77,22.09,1.18,3.06,3.53,4.59,6.83,4.59s5.54-1.53,6.83-4.59c1.3-3.06,1.89-10.5,1.89-22.09v-16.62c0-10.94-.59-17.83-1.89-20.78-1.29-2.95-3.53-4.48-6.83-4.48s-5.65,1.53-6.83,4.59c-1.18,3.06-1.77,10.5-1.77,22.31v7.44Z"/>
      <g>
        <path class="cls-2" d="M190.12,652.82v31.45c0,2.19,.53,3.78,1.58,4.75,1.06,.98,2.83,1.47,5.34,1.47h7.63v13.85h-10.33c-13.85,0-20.77-6.73-20.77-20.18v-31.33h-7.75v-13.5h7.75v-16.08h16.55v16.08h14.55v13.5h-14.55Z"/>
        <path class="cls-6" d="M266.28,641.61c3.83,2.15,6.82,5.32,8.98,9.5,2.15,4.19,3.23,9.21,3.23,15.08v38.14h-16.43v-35.91c0-5.16-1.29-9.13-3.87-11.91-2.58-2.78-6.1-4.17-10.56-4.17s-8.12,1.39-10.74,4.17c-2.62,2.78-3.93,6.75-3.93,11.91v35.91h-16.43v-86.84h16.43v29.92c2.11-2.82,4.93-5.03,8.45-6.63,3.52-1.6,7.43-2.41,11.73-2.41,4.93,0,9.31,1.08,13.14,3.23Z"/>
        <path class="cls-11" d="M354.05,676.75h-47.53c.39,4.69,2.03,8.37,4.93,11.03,2.89,2.66,6.45,3.99,10.68,3.99,6.1,0,10.44-2.62,13.03-7.86h17.72c-1.88,6.26-5.48,11.4-10.8,15.43-5.32,4.03-11.85,6.04-19.6,6.04-6.26,0-11.87-1.39-16.84-4.17-4.97-2.78-8.84-6.71-11.62-11.79-2.78-5.08-4.17-10.95-4.17-17.6s1.37-12.63,4.11-17.72c2.74-5.09,6.57-9,11.5-11.73,4.93-2.74,10.6-4.11,17.02-4.11s11.71,1.33,16.6,3.99c4.89,2.66,8.68,6.44,11.38,11.32,2.7,4.89,4.05,10.5,4.05,16.84,0,2.35-.16,4.46-.47,6.34Zm-16.55-11.03c-.08-4.22-1.6-7.61-4.58-10.15-2.97-2.54-6.61-3.81-10.91-3.81-4.07,0-7.49,1.23-10.27,3.7-2.78,2.46-4.48,5.89-5.11,10.27h30.86Z"/>
        <path class="cls-7" d="M369.78,685.79c7.51-6.26,13.49-11.48,17.95-15.67,4.46-4.18,8.17-8.55,11.15-13.08,2.97-4.54,4.46-9,4.46-13.38,0-3.99-.94-7.12-2.82-9.39-1.88-2.27-4.77-3.4-8.68-3.4s-6.92,1.31-9.04,3.93c-2.11,2.62-3.21,6.2-3.29,10.74h-15.96c.31-9.39,3.11-16.51,8.39-21.36,5.28-4.85,11.99-7.27,20.13-7.27,8.92,0,15.76,2.37,20.54,7.1,4.77,4.73,7.16,10.97,7.16,18.72,0,6.1-1.64,11.93-4.93,17.49-3.29,5.56-7.04,10.39-11.27,14.49-4.22,4.11-9.74,9.06-16.55,14.84h34.62v13.61h-57.97v-12.2l6.1-5.16Z"/>
        <path class="cls-4" d="M439.31,628.64c4.89-7.67,13.01-11.5,24.35-11.5s19.46,3.83,24.35,11.5c4.89,7.67,7.33,18.27,7.33,31.8s-2.45,24.29-7.33,32.04c-4.89,7.74-13.01,11.62-24.35,11.62s-19.46-3.87-24.35-11.62c-4.89-7.75-7.33-18.42-7.33-32.04s2.44-24.13,7.33-31.8Zm38.73,17.19c-.74-3.95-2.23-7.18-4.46-9.68-2.23-2.5-5.54-3.75-9.92-3.75s-7.69,1.25-9.92,3.75c-2.23,2.51-3.72,5.73-4.46,9.68-.74,3.95-1.11,8.82-1.11,14.61s.35,10.93,1.06,14.96c.7,4.03,2.19,7.28,4.46,9.74,2.27,2.46,5.59,3.7,9.97,3.7s7.7-1.23,9.97-3.7c2.27-2.46,3.75-5.71,4.46-9.74,.7-4.03,1.06-9.02,1.06-14.96s-.37-10.66-1.11-14.61Z"/>
        <path class="cls-3" d="M509.6,702.4c-1.92-1.84-2.88-4.13-2.88-6.87s.96-5.03,2.88-6.86c1.92-1.84,4.36-2.76,7.33-2.76s5.28,.92,7.16,2.76c1.88,1.84,2.82,4.13,2.82,6.86s-.94,5.03-2.82,6.87c-1.88,1.84-4.26,2.76-7.16,2.76s-5.42-.92-7.33-2.76Z"/>
        <path class="cls-12" d="M550.73,702.51c-4.22-1.92-7.57-4.52-10.03-7.8-2.46-3.29-3.81-6.92-4.05-10.91h16.55c.31,2.51,1.54,4.58,3.7,6.22,2.15,1.64,4.83,2.46,8.04,2.46s5.57-.63,7.33-1.88c1.76-1.25,2.64-2.85,2.64-4.81,0-2.11-1.08-3.7-3.23-4.75-2.15-1.06-5.57-2.21-10.27-3.46-4.85-1.17-8.82-2.39-11.91-3.64-3.09-1.25-5.75-3.17-7.98-5.75-2.23-2.58-3.34-6.06-3.34-10.44,0-3.6,1.04-6.88,3.11-9.86,2.07-2.97,5.05-5.32,8.92-7.04,3.87-1.72,8.43-2.58,13.67-2.58,7.74,0,13.92,1.94,18.54,5.81,4.61,3.87,7.16,9.09,7.63,15.67h-15.72c-.23-2.58-1.31-4.63-3.23-6.16-1.92-1.53-4.48-2.29-7.69-2.29-2.97,0-5.26,.55-6.86,1.64-1.61,1.1-2.41,2.62-2.41,4.58,0,2.19,1.1,3.85,3.29,4.99,2.19,1.13,5.59,2.29,10.21,3.46,4.69,1.17,8.57,2.39,11.62,3.64,3.05,1.25,5.69,3.19,7.92,5.81,2.23,2.62,3.38,6.08,3.46,10.39,0,3.75-1.04,7.12-3.11,10.09-2.07,2.97-5.05,5.3-8.92,6.98-3.87,1.68-8.39,2.52-13.55,2.52s-10.09-.96-14.32-2.88Z"/>
        <path class="cls-13" d="M642.38,641.14c3.68,1.92,6.57,4.4,8.68,7.45v-9.27h16.55v65.48c0,6.02-1.21,11.4-3.64,16.14-2.43,4.73-6.06,8.49-10.91,11.27-4.85,2.78-10.72,4.17-17.6,4.17-9.23,0-16.8-2.15-22.71-6.45-5.91-4.3-9.25-10.17-10.03-17.6h16.31c.86,2.97,2.72,5.34,5.57,7.1,2.85,1.76,6.32,2.64,10.39,2.64,4.77,0,8.64-1.43,11.62-4.28,2.97-2.86,4.46-7.18,4.46-12.97v-10.09c-2.11,3.05-5.03,5.59-8.74,7.63-3.72,2.03-7.96,3.05-12.73,3.05-5.48,0-10.48-1.41-15.02-4.22-4.54-2.82-8.12-6.79-10.74-11.91-2.62-5.12-3.93-11.01-3.93-17.66s1.31-12.4,3.93-17.49c2.62-5.09,6.18-9,10.68-11.73,4.5-2.74,9.52-4.11,15.08-4.11,4.85,0,9.11,.96,12.79,2.88Zm6.34,20.42c-1.57-2.85-3.68-5.05-6.34-6.57-2.66-1.53-5.52-2.29-8.57-2.29s-5.87,.74-8.45,2.23c-2.58,1.49-4.68,3.66-6.28,6.51-1.6,2.86-2.41,6.24-2.41,10.15s.8,7.33,2.41,10.27c1.6,2.93,3.71,5.18,6.34,6.75,2.62,1.57,5.42,2.35,8.39,2.35s5.91-.76,8.57-2.29c2.66-1.53,4.77-3.71,6.34-6.57,1.56-2.85,2.35-6.28,2.35-10.27s-.78-7.41-2.35-10.27Z"/>
      </g>
    </g>
  </g>
</svg>